HIERARCHY
ROOT hip
{
  OFFSET 0 0 0
  CHANNELS 6 Xposition Yposition Zposition Zrotation Yrotation Xrotation
  JOINT abdomen
  {
    OFFSET 0 20.6881 -0.73152
    CHANNELS 3 Zrotation Xrotation Yrotation
    JOINT chest
    {
      OFFSET 0 11.7043 -0.48768
      CHANNELS 3 Zrotation Xrotation Yrotation
      JOINT neck
      {
        OFFSET 0 22.1894 -2.19456
        CHANNELS 3 Zrotation Xrotation Yrotation
        JOINT head
        {
          OFFSET -0.24384 7.07133 1.2192
          CHANNELS 3 Zrotation Xrotation Yrotation
          JOINT leftEye
          {
            OFFSET 4.14528 8.04674 8.04672
            CHANNELS 3 Zrotation Xrotation Yrotation
            End Site
            {
              OFFSET 1 0 0
            }
          }
          JOINT rightEye
          {
            OFFSET -3.6576 8.04674 8.04672
            CHANNELS 3 Zrotation Xrotation Yrotation
            End Site
            {
              OFFSET 1 0 0
            }
          }
        }
      }
      JOINT rCollar
      {
        OFFSET -2.68224 19.2634 -4.8768
        CHANNELS 3 Zrotation Xrotation Yrotation
        JOINT rShldr
        {
          OFFSET -8.77824 -1.95073 1.46304
          CHANNELS 3 Zrotation Xrotation Yrotation
          JOINT rForeArm
          {
            OFFSET -28.1742 -1.7115 0.48768
            CHANNELS 3 Zrotation Xrotation Yrotation
            JOINT rHand
            {
              OFFSET -22.5879 0.773209 7.07136
              CHANNELS 3 Zrotation Xrotation Yrotation
              JOINT rThumb1
              {
                OFFSET -1.2192 -0.487915 3.41376
                CHANNELS 3 Zrotation Xrotation Yrotation
                JOINT rThumb2
                {
                  OFFSET -3.37035 -0.52449 3.41376
                  CHANNELS 3 Zrotation Xrotation Yrotation
                  End Site
                  {
                    OFFSET -1.78271 -1.18214 1.43049
                  }
                }
              }
              JOINT rIndex1
              {
                OFFSET -7.75947 0.938293 5.60832
                CHANNELS 3 Zrotation Xrotation Yrotation
                JOINT rIndex2
                {
                  OFFSET -2.54057 -0.884171 1.56538
                  CHANNELS 3 Zrotation Xrotation Yrotation
                  End Site
                  {
                    OFFSET -1.62519 -0.234802 1.16502
                  }
                }
              }
              JOINT rMid1
              {
                OFFSET -8.24714 1.18213 3.41376
                CHANNELS 3 Zrotation Xrotation Yrotation
                JOINT rMid2
                {
                  OFFSET -3.10165 -0.590103 1.0647
                  CHANNELS 3 Zrotation Xrotation Yrotation
                  End Site
                  {
                    OFFSET -2.48547 -0.328903 0.83742
                  }
                }
              }
              JOINT rRing1
              {
                OFFSET -8.82822 0.546677 1.51678
                CHANNELS 3 Zrotation Xrotation Yrotation
                JOINT rRing2
                {
                  OFFSET -2.60934 -0.819778 -0.0198488
                  CHANNELS 3 Zrotation Xrotation Yrotation
                  End Site
                  {
                    OFFSET -2.33842 -0.294052 0.168128
                  }
                }
              }
              JOINT rPinky1
              {
                OFFSET -8.27202 -0.0477905 -0.4584
                CHANNELS 3 Zrotation Xrotation Yrotation
                JOINT rPinky2
                {
                  OFFSET -1.82734 -0.647385 -0.700984
                  CHANNELS 3 Zrotation Xrotation Yrotation
                  End Site
                  {
                    OFFSET -1.69225 -0.51767 -0.607171
                  }
                }
              }
            }
          }
        }
      }
      JOINT lCollar
      {
        OFFSET 2.68224 19.2634 -4.8768
        CHANNELS 3 Zrotation Xrotation Yrotation
        JOINT lShldr
        {
          OFFSET 8.77824 -1.95073 1.46304
          CHANNELS 3 Zrotation Xrotation Yrotation
          JOINT lForeArm
          {
            OFFSET 28.1742 -1.7115 0.48768
            CHANNELS 3 Zrotation Xrotation Yrotation
            JOINT lHand
            {
              OFFSET 22.5879 0.773209 7.07136
              CHANNELS 3 Zrotation Xrotation Yrotation
              JOINT lThumb1
              {
                OFFSET 1.2192 -0.487915 3.41376
                CHANNELS 3 Zrotation Xrotation Yrotation
                JOINT lThumb2
                {
                  OFFSET 3.37035 -0.52449 3.41376
                  CHANNELS 3 Zrotation Xrotation Yrotation
                  End Site
                  {
                    OFFSET 1.78271 -1.18214 1.43049
                  }
                }
              }
              JOINT lIndex1
              {
                OFFSET 7.75947 0.938293 5.60832
                CHANNELS 3 Zrotation Xrotation Yrotation
                JOINT lIndex2
                {
                  OFFSET 2.54057 -0.884171 1.56538
                  CHANNELS 3 Zrotation Xrotation Yrotation
                  End Site
                  {
                    OFFSET 1.62519 -0.234802 1.16502
                  }
                }
              }
              JOINT lMid1
              {
                OFFSET 8.24714 1.18213 3.41376
                CHANNELS 3 Zrotation Xrotation Yrotation
                JOINT lMid2
                {
                  OFFSET 3.10165 -0.590103 1.0647
                  CHANNELS 3 Zrotation Xrotation Yrotation
                  End Site
                  {
                    OFFSET 2.48547 -0.328903 0.83742
                  }
                }
              }
              JOINT lRing1
              {
                OFFSET 8.82822 0.546677 1.51678
                CHANNELS 3 Zrotation Xrotation Yrotation
                JOINT lRing2
                {
                  OFFSET 2.60934 -0.819778 -0.0198488
                  CHANNELS 3 Zrotation Xrotation Yrotation
                  End Site
                  {
                    OFFSET 2.33842 -0.294052 0.168128
                  }
                }
              }
              JOINT lPinky1
              {
                OFFSET 8.27202 -0.0477905 -0.4584
                CHANNELS 3 Zrotation Xrotation Yrotation
                JOINT lPinky2
                {
                  OFFSET 1.82734 -0.647385 -0.700984
                  CHANNELS 3 Zrotation Xrotation Yrotation
                  End Site
                  {
                    OFFSET 1.69225 -0.51767 -0.607171
                  }
                }
              }
            }
          }
        }
      }
    }
  }
  JOINT rButtock
  {
    OFFSET -8.77824 4.35084 1.2192
    CHANNELS 3 Zrotation Xrotation Yrotation
    JOINT rThigh
    {
      OFFSET 0 -1.70687 -2.19456
      CHANNELS 3 Zrotation Xrotation Yrotation
      JOINT rShin
      {
        OFFSET 0 -36.8199 0.73152
        CHANNELS 3 Zrotation Xrotation Yrotation
        JOINT rFoot
        {
          OFFSET 0.73152 -45.1104 -5.12064
          CHANNELS 3 Zrotation Xrotation Yrotation
          End Site
          {
            OFFSET -1.1221 -3.69964 12.103
          }
        }
      }
    }
  }
  JOINT lButtock
  {
    OFFSET 8.77824 4.35084 1.2192
    CHANNELS 3 Zrotation Xrotation Yrotation
    JOINT lThigh
    {
      OFFSET 0 -1.70687 -2.19456
      CHANNELS 3 Zrotation Xrotation Yrotation
      JOINT lShin
      {
        OFFSET 0 -36.8199 0.73152
        CHANNELS 3 Zrotation Xrotation Yrotation
        JOINT lFoot
        {
          OFFSET -0.73152 -45.1104 -5.12064
          CHANNELS 3 Zrotation Xrotation Yrotation
          End Site
          {
            OFFSET 1.1221 -3.69964 12.103
          }
        }
      }
    }
  }
}
MOTION
Frames:	4
Frame Time:	0.03333
-13.542999991295801 43.550100922584534 11.005999939516187 175.18702697753906 -70.0365982055664 -169.02096557617188 -10.804189682006836 18.086097717285156 15.170384407043457 -5.3677215576171875 -12.823805809020996 3.1170341968536377 0.21829579770565033 15.070314407348633 15.990485191345215 -2.5453732013702393 -17.559696197509766 30.355804443359375 -0.0 0.0 -0.0 -0.0 0.0 -0.0 -0.0 -0.0 -0.0 72.12110137939453 52.21369552612305 -16.838701248168945 -27.603404998779297 -42.13850402832031 87.84719848632812 -0.0189208947122097 5.174626350402832 0.7285860776901245 -0.0 0.0 0.0 -0.0 0.0 0.0 -0.0 0.0 0.0 7.730902194976807 5.47491455078125 0.4173222780227661 -0.0 0.0 0.0 2.905566453933716 0.9650754332542419 0.10300818830728531 -0.0 0.0 0.0 10.278596878051758 0.7318810820579529 0.026273518800735474 -0.0 0.0 0.0 2.221662998199463 -0.7334509491920471 -0.20832103490829468 -0.0 -0.0 -0.0 -42.276100158691406 45.798301696777344 -27.086706161499023 25.912193298339844 -46.440406799316406 -96.48909759521484 1.0585910081863403 -27.877395629882812 4.263365268707275 0.0 0.0 0.0 0.0 0.0 0.0 0.0 0.0 0.0 -7.730902194976807 5.47491455078125 -0.4173222780227661 0.0 0.0 0.0 -2.905566453933716 0.9650754332542419 -0.10300818830728531 0.0 0.0 0.0 -10.278596878051758 0.7318810820579529 -0.026273518800735474 0.0 0.0 0.0 -2.221662998199463 -0.7334509491920471 0.20832103490829468 -0.0 0.0 -0.0 -73.43310546875 -50.06179428100586 -59.593902587890625 -165.0886688232422 86.04427337646484 166.57960510253906 4.655908584594727 -24.201189041137695 5.145925521850586 0.0 0.0 0.0 55.97341537475586 -52.12069320678711 42.076324462890625 91.7808837890625 89.21566009521484 -94.69830322265625 1.0907436609268188 -27.155391693115234 7.148954391479492
-13.53209999124374 43.414899706840515 11.066999938338995 175.5689697265625 -70.06330108642578 -169.3889923095703 -10.713601112365723 18.039785385131836 15.152886390686035 -5.336487770080566 -12.85300064086914 3.12217116355896 0.14447705447673798 15.047301292419434 15.987207412719727 -2.4447197914123535 -17.556304931640625 30.368600845336914 -0.0 0.0 -0.0 -0.0 0.0 -0.0 -0.0 -0.0 -0.0 72.20179748535156 52.0851936340332 -17.006502151489258 -27.607999801635742 -42.12181091308594 87.8156967163086 -0.03131251409649849 5.044768333435059 0.7107927799224854 0.0 0.0 0.0 0.0 0.0 0.0 0.0 0.0 0.0 7.730902194976807 5.47491455078125 0.4173222780227661 0.0 0.0 0.0 2.905566453933716 0.9650754332542419 0.10300818830728531 0.0 0.0 0.0 10.278596878051758 0.7318810820579529 0.026273518800735474 0.0 0.0 0.0 2.221662998199463 -0.7334509491920471 -0.20832103490829468 -0.0 -0.0 -0.0 -42.2593994140625 45.80139923095703 -27.13370704650879 25.9092960357666 -46.44589614868164 -96.5009994506836 1.0983034372329712 -28.342498779296875 4.347675800323486 -0.0 -0.0 -0.0 -0.0 -0.0 -0.0 -0.0 -0.0 -0.0 -7.730902194976807 5.47491455078125 -0.4173222780227661 -0.0 -0.0 -0.0 -2.905566453933716 0.9650754332542419 -0.10300818830728531 -0.0 -0.0 -0.0 -10.278596878051758 0.7318810820579529 -0.026273518800735474 -0.0 -0.0 -0.0 -2.221662998199463 -0.7334509491920471 0.20832103490829468 -0.0 0.0 -0.0 -73.61930847167969 -50.15541458129883 -59.74469757080078 -165.9215087890625 85.807861328125 167.43655395507812 4.578792572021484 -24.218990325927734 4.965144157409668 0.0 0.0 0.0 56.4512939453125 -52.23879623413086 42.39939880371094 115.11365509033203 89.13069152832031 -118.05487823486328 1.1501322984695435 -27.191390991210938 7.26676607131958
-13.502399992103165 43.23520064353943 11.090999937732704 175.6790008544922 -70.15599822998047 -169.4550018310547 -10.516697883605957 18.010896682739258 15.19578742980957 -5.463245391845703 -12.890402793884277 3.130323648452759 0.2263236939907074 14.959912300109863 15.933788299560547 -2.4344351291656494 -17.468706130981445 30.27069091796875 -0.0 0.0 -0.0 -0.0 0.0 -0.0 -0.0 -0.0 -0.0 72.41969299316406 51.87528991699219 -17.27560043334961 -27.60849380493164 -42.11980056762695 87.81199645996094 -0.03012472204864025 4.948456287384033 0.6971569061279297 -0.0 -0.0 -0.0 -0.0 -0.0 -0.0 -0.0 -0.0 -0.0 7.730902194976807 5.47491455078125 0.4173222780227661 -0.0 -0.0 -0.0 2.905566453933716 0.9650754332542419 0.10300818830728531 -0.0 -0.0 -0.0 10.278596878051758 0.7318810820579529 0.026273518800735474 -0.0 -0.0 -0.0 2.221662998199463 -0.7334509491920471 -0.20832103490829468 -0.0 -0.0 -0.0 -42.03511428833008 45.900901794433594 -27.354995727539062 25.90799903869629 -46.44819259643555 -96.50609588623047 1.132767915725708 -28.561254501342773 4.39155387878418 0.0 0.0 0.0 0.0 0.0 0.0 0.0 0.0 0.0 -7.730902194976807 5.47491455078125 -0.4173222780227661 0.0 0.0 0.0 -2.905566453933716 0.9650754332542419 -0.10300818830728531 0.0 0.0 0.0 -10.278596878051758 0.7318810820579529 -0.026273518800735474 0.0 0.0 0.0 -2.221662998199463 -0.7334509491920471 0.20832103490829468 -0.0 0.0 -0.0 -73.85718536376953 -50.20278549194336 -59.997005462646484 -166.62042236328125 85.58234405517578 168.1531982421875 4.563409805297852 -24.22930908203125 4.904514789581299 0.0 0.0 0.0 56.99290466308594 -52.457008361816406 42.764705657958984 132.8527069091797 88.92171478271484 -135.81875610351562 1.2205208539962769 -27.20111083984375 7.411003589630127
-13.472699992962589 43.0635005235672 11.141999936080538 176.24000549316406 -70.25350189208984 -169.96400451660156 -10.300999641418457 17.993497848510742 15.217691421508789 -5.599674224853516 -12.919999122619629 3.132143020629883 0.3245440125465393 14.869194984436035 15.875890731811523 -2.438300132751465 -17.392898559570312 30.162803649902344 -0.0 0.0 -0.0 -0.0 0.0 -0.0 -0.0 0.0 0.0 72.62360382080078 51.67159652709961 -17.528501510620117 -27.609403610229492 -42.116302490234375 87.80530548095703 -0.02942836284637451 4.8912177085876465 0.6890212893486023 -0.0 -0.0 -0.0 -0.0 -0.0 -0.0 -0.0 -0.0 -0.0 7.730902194976807 5.47491455078125 0.4173222780227661 -0.0 -0.0 -0.0 2.905566453933716 0.9650754332542419 0.10300818830728531 -0.0 -0.0 -0.0 10.278596878051758 0.7318810820579529 0.026273518800735474 -0.0 -0.0 -0.0 2.221662998199463 -0.7334509491920471 -0.20832103490829468 -0.0 0.0 0.0 -41.81470489501953 45.99980926513672 -27.5751953125 25.907291412353516 -46.44969940185547 -96.50939178466797 1.1194767951965332 -28.586196899414062 4.3920817375183105 0.0 0.0 0.0 0.0 0.0 0.0 0.0 0.0 0.0 -7.730902194976807 5.47491455078125 -0.4173222780227661 0.0 0.0 0.0 -2.905566453933716 0.9650754332542419 -0.10300818830728531 0.0 0.0 0.0 -10.278596878051758 0.7318810820579529 -0.026273518800735474 0.0 0.0 0.0 -2.221662998199463 -0.7334509491920471 0.20832103490829468 -0.0 0.0 -0.0 -74.11539459228516 -50.211002349853516 -60.29278564453125 -167.24090576171875 85.36214447021484 168.79177856445312 4.541073322296143 -24.23409652709961 4.83311653137207 0.0 0.0 0.0 57.501190185546875 -52.73198699951172 43.06929397583008 143.86024475097656 88.65419006347656 -146.8523406982422 1.292590618133545 -27.193880081176758 7.56394624710083
